<?xml version="1.0" encoding="UTF-8"?>
<!DOCTYPE svg PUBLIC "-//W3C//DTD SVG 1.1//EN" "http://www.w3.org/Graphics/SVG/1.1/DTD/svg11.dtd">
<svg xmlns="http://www.w3.org/2000/svg" version="1.1" width="1322px" height="188px" style="shape-rendering:geometricPrecision; text-rendering:geometricPrecision; image-rendering:optimizeQuality; fill-rule:evenodd; clip-rule:evenodd" xmlns:xlink="http://www.w3.org/1999/xlink">
<g><path style="opacity:1" fill="#919fa8" d="M 72.5,33.5 C 86.5983,33.0104 100.265,35.1771 113.5,40C 116.115,40.7946 118.115,42.2946 119.5,44.5C 116.432,52.2014 113.266,59.8681 110,67.5C 96.6621,59.4802 82.4954,57.3136 67.5,61C 61.3922,67.262 62.3922,71.9286 70.5,75C 85.0991,77.4817 99.0991,81.815 112.5,88C 123.482,96.7453 126.982,107.912 123,121.5C 119.193,131.974 112.026,139.141 101.5,143C 80.96,149.341 60.6267,148.675 40.5,141C 36.4678,139.322 32.8012,137.156 29.5,134.5C 32.7094,126.707 36.2094,119.04 40,111.5C 54.3553,120.438 69.8553,123.604 86.5,121C 93.666,117.67 94.3327,113.337 88.5,108C 78.6689,104.709 68.6689,102.042 58.5,100C 32.3037,91.7735 25.137,75.2735 37,50.5C 46.6356,40.1276 58.4689,34.4609 72.5,33.5 Z"/></g>
<g><path style="opacity:1" fill="#919fa8" d="M 488.5,33.5 C 503.74,32.7662 518.407,35.2662 532.5,41C 534.061,41.941 535.395,43.1076 536.5,44.5C 533.531,52.4357 530.031,60.1024 526,67.5C 512.24,58.8842 497.74,57.0509 482.5,62C 478.014,66.9017 478.681,70.9017 484.5,74C 495.828,76.9988 507.162,79.9988 518.5,83C 541.423,92.6946 546.923,108.528 535,130.5C 525.869,140.775 514.369,146.275 500.5,147C 482.213,148.542 464.879,145.209 448.5,137C 447.426,136.261 446.759,135.261 446.5,134C 449.427,126.21 452.927,118.71 457,111.5C 472.02,121.038 488.187,123.871 505.5,120C 511.436,114.36 510.436,110.027 502.5,107C 493.572,104.414 484.572,102.081 475.5,100C 454.236,95.0838 445.403,81.9172 449,60.5C 452.406,49.427 459.573,41.927 470.5,38C 476.553,36.1533 482.553,34.6533 488.5,33.5 Z"/></g>
<g><path style="opacity:1" fill="#919fa8" d="M 248.5,35.5 C 252.958,37.6811 257.791,39.0144 263,39.5C 263.826,74.9047 263.659,110.238 262.5,145.5C 252.584,145.819 242.75,145.486 233,144.5C 232.5,130.837 232.333,117.171 232.5,103.5C 219.167,103.5 205.833,103.5 192.5,103.5C 192.5,117.5 192.5,131.5 192.5,145.5C 181.833,145.5 171.167,145.5 160.5,145.5C 160.333,109.165 160.5,72.8318 161,36.5C 171.333,35.1667 181.667,35.1667 192,36.5C 192.5,49.8292 192.667,63.1625 192.5,76.5C 206.171,76.6666 219.837,76.4999 233.5,76C 232.345,62.9086 232.178,49.742 233,36.5C 238.072,35.5286 243.238,35.1953 248.5,35.5 Z"/></g>
<g><path style="opacity:1" fill="#919fa8" d="M 870.5,35.5 C 879.173,35.3336 887.84,35.5002 896.5,36C 911.624,54.7926 927.124,73.2926 943,91.5C 943.5,72.8363 943.667,54.1696 943.5,35.5C 953.833,35.5 964.167,35.5 974.5,35.5C 974.5,72.1667 974.5,108.833 974.5,145.5C 965.827,145.666 957.16,145.5 948.5,145C 932.643,126.778 917.143,108.278 902,89.5C 901.5,108.164 901.333,126.83 901.5,145.5C 891.167,145.5 880.833,145.5 870.5,145.5C 870.5,108.833 870.5,72.1667 870.5,35.5 Z"/></g>
<g><path style="opacity:1" fill="#919fa7" d="M 1018.5,35.5 C 1028.83,35.5 1039.17,35.5 1049.5,35.5C 1050.26,49.8086 1050.76,64.142 1051,78.5C 1064.5,64.3333 1078,50.1667 1091.5,36C 1102.99,35.025 1114.32,35.3584 1125.5,37C 1110.95,52.7112 1096.62,68.5446 1082.5,84.5C 1096.73,104.235 1111.56,123.569 1127,142.5C 1127.48,143.448 1127.65,144.448 1127.5,145.5C 1115.5,145.667 1103.5,145.5 1091.5,145C 1081.33,132.167 1071.17,119.333 1061,106.5C 1057.67,109.833 1054.33,113.167 1051,116.5C 1050.76,126.2 1050.26,135.866 1049.5,145.5C 1039.17,145.5 1028.83,145.5 1018.5,145.5C 1018.5,108.833 1018.5,72.1667 1018.5,35.5 Z"/></g>
<g><path style="opacity:1" fill="#919fa8" d="M 344.5,35.5 C 354.749,35.1806 364.916,35.5139 375,36.5C 391.402,72.6318 407.235,108.965 422.5,145.5C 411.828,145.667 401.161,145.5 390.5,145C 387.226,138.452 384.226,131.785 381.5,125C 366.5,124.333 351.5,124.333 336.5,125C 333.694,131.75 330.694,138.417 327.5,145C 316.675,145.973 306.008,145.64 295.5,144C 311.719,107.733 328.052,71.566 344.5,35.5 Z M 358.5,68.5 C 363.057,78.6291 367.39,88.9624 371.5,99.5C 363.193,100.498 354.86,100.831 346.5,100.5C 350.493,89.8439 354.493,79.1772 358.5,68.5 Z"/></g>
<g><path style="opacity:1" fill="#929fa8" d="M 675.5,35.5 C 677.019,36.4098 678.685,37.2432 680.5,38C 679.67,72.4286 679.17,106.929 679,141.5C 670.251,142.484 661.418,142.817 652.5,142.5C 652.667,129.163 652.5,115.829 652,102.5C 650.933,101.809 649.766,101.309 648.5,101C 639.833,100.333 631.167,100.333 622.5,101C 621.244,101.417 620.577,102.25 620.5,103.5C 616.833,103.5 613.167,103.5 609.5,103.5C 609.815,117.216 609.482,130.883 608.5,144.5C 598.167,145.833 587.833,145.833 577.5,144.5C 576.84,126.376 576.506,108.209 576.5,90C 576.503,71.9279 576.837,53.9279 577.5,36C 587.849,35.1677 598.183,35.3344 608.5,36.5C 609.482,49.7838 609.815,63.1172 609.5,76.5C 622.833,76.5 636.167,76.5 649.5,76.5C 649.333,63.1625 649.5,49.8292 650,36.5C 658.415,35.5168 666.915,35.1834 675.5,35.5 Z"/></g>
<g><path style="opacity:1" fill="#919fa8" d="M 760.5,35.5 C 770.506,35.3335 780.506,35.5002 790.5,36C 807.219,71.9428 823.553,108.11 839.5,144.5C 828.5,145.833 817.5,145.833 806.5,144.5C 803.558,138.282 800.891,131.949 798.5,125.5C 783.167,124.167 767.833,124.167 752.5,125.5C 749.963,132.072 747.296,138.572 744.5,145C 733.839,145.5 723.172,145.667 712.5,145.5C 727.946,108.606 743.946,71.9391 760.5,35.5 Z M 774.5,69.5 C 775.497,69.4701 776.164,69.9701 776.5,71C 780.509,80.6817 784.509,90.3484 788.5,100C 779.833,100.667 771.167,100.667 762.5,100C 766.995,90.0123 770.995,79.8456 774.5,69.5 Z"/></g>
<g><path style="opacity:0.713" fill="#9ba1a7" d="M 248.5,35.5 C 254.093,35.1934 259.593,35.5268 265,36.5C 265.667,72.5 265.667,108.5 265,144.5C 264.329,145.252 263.496,145.586 262.5,145.5C 263.659,110.238 263.826,74.9047 263,39.5C 257.791,39.0144 252.958,37.6811 248.5,35.5 Z"/></g>
<g><path style="opacity:0.98" fill="#909ba2" d="M 675.5,35.5 C 677.467,35.2606 679.301,35.5939 681,36.5C 681.5,72.8318 681.667,109.165 681.5,145.5C 670.833,145.5 660.167,145.5 649.5,145.5C 649.5,131.5 649.5,117.5 649.5,103.5C 639.833,103.5 630.167,103.5 620.5,103.5C 620.577,102.25 621.244,101.417 622.5,101C 631.167,100.333 639.833,100.333 648.5,101C 649.766,101.309 650.933,101.809 652,102.5C 652.5,115.829 652.667,129.163 652.5,142.5C 661.418,142.817 670.251,142.484 679,141.5C 679.17,106.929 679.67,72.4286 680.5,38C 678.685,37.2432 677.019,36.4098 675.5,35.5 Z"/></g>
</svg>
